<svg width="139" height="32" viewBox="0 0 139 32" fill="none" xmlns="http://www.w3.org/2000/svg">
<path d="M5.75661 32C4.09171 32 2.70899 31.5062 1.60847 30.5185C0.536155 29.5026 0 28.1058 0 26.328V24.5503C0 22.8007 0.592593 21.3757 1.77778 20.2751C2.99118 19.1464 4.81129 18.582 7.23809 18.582H14.3069V16.2116C14.3069 15.3369 14.1517 14.6032 13.8413 14.0106C13.5591 13.3898 13.0229 12.9242 12.2328 12.6138C11.4427 12.3034 10.2716 12.1481 8.71958 12.1481H1.77778V9.65079C2.79365 9.42505 3.97884 9.22751 5.33333 9.0582C6.71605 8.88889 8.32451 8.79012 10.1587 8.7619C12.0212 8.7619 13.5732 9.00176 14.8148 9.48148C16.0847 9.93298 17.03 10.6949 17.6508 11.7672C18.2716 12.8113 18.582 14.2081 18.582 15.9577V31.746H15.2381L14.5185 29.2487C14.3492 29.3616 13.9965 29.5732 13.4603 29.8836C12.9242 30.1658 12.2328 30.4762 11.3862 30.8148C10.5679 31.1534 9.6649 31.4356 8.67725 31.6614C7.71781 31.8871 6.74427 32 5.75661 32ZM7.7037 28.9101C8.12698 28.9383 8.62081 28.8959 9.18518 28.7831C9.77778 28.6702 10.3563 28.5432 10.9206 28.4021C11.5132 28.2328 12.0494 28.0635 12.5291 27.8942C13.037 27.7249 13.4462 27.5838 13.7566 27.4709C14.0952 27.3298 14.2787 27.2451 14.3069 27.2169V20.6984L8.38095 20.9524C6.91358 21.037 5.85538 21.4039 5.20635 22.0529C4.58554 22.7019 4.27513 23.5485 4.27513 24.5926V25.6085C4.27513 26.4268 4.44444 27.0899 4.78307 27.5979C5.12169 28.0776 5.54497 28.4162 6.05291 28.6138C6.58907 28.8113 7.13933 28.9101 7.7037 28.9101Z" fill="white"/>
<path d="M22.2179 31.746V9.10053H25.4772L26.4507 12.9101C27.4102 11.7531 28.4825 10.7795 29.6677 9.98942C30.8528 9.1993 32.2356 8.80423 33.8158 8.80423C34.1826 8.80423 34.5354 8.83245 34.874 8.88889C35.2126 8.91711 35.5371 8.97355 35.8476 9.0582V13.418C35.4525 13.3616 35.0433 13.3192 34.62 13.291C34.1968 13.2346 33.7594 13.2063 33.3079 13.2063C32.3484 13.2063 31.4878 13.3192 30.7259 13.545C29.964 13.7707 29.2303 14.1235 28.5248 14.6032C27.8476 15.0547 27.1562 15.619 26.4507 16.2963V31.746H22.2179Z" fill="white"/>
<path d="M47.6478 31.746C46.124 31.746 44.8542 31.5062 43.8383 31.0265C42.8506 30.5185 42.117 29.7143 41.6372 28.6138C41.1857 27.5132 40.9741 26.0459 41.0023 24.2116L41.1716 12.5714H37.5737V9.82011L41.2563 9.10053L41.8912 2.75132H45.2351V9.10053H51.3727V12.5714H45.2351V24.1693C45.2351 25.0441 45.3198 25.7496 45.4891 26.2857C45.6584 26.8219 45.8983 27.231 46.2087 27.5132C46.5191 27.7954 46.8577 28.0071 47.2245 28.1481C47.5914 28.261 47.9441 28.3316 48.2827 28.3598L51.0764 28.6138V31.746H47.6478Z" fill="white"/>
<path d="M62.4636 32C60.065 32 58.1462 31.6473 56.707 30.9418C55.2961 30.2363 54.2802 29.0511 53.6594 27.3862C53.0668 25.6931 52.7705 23.3651 52.7705 20.4021C52.7705 17.3827 53.0668 15.0406 53.6594 13.3757C54.2802 11.6825 55.2961 10.4974 56.707 9.82011C58.1179 9.14286 60.0227 8.80423 62.4213 8.80423C64.5095 8.80423 66.1885 9.02998 67.4583 9.48148C68.7564 9.90476 69.7017 10.6808 70.2943 11.8095C70.9151 12.9101 71.2255 14.448 71.2255 16.4233C71.2255 17.806 70.9433 18.9065 70.379 19.7249C69.8428 20.5432 69.0668 21.1358 68.0509 21.5026C67.0633 21.8695 65.8781 22.0529 64.4954 22.0529H57.0033C57.0315 23.6896 57.2149 25.0018 57.5536 25.9894C57.9204 26.9489 58.5553 27.6543 59.4583 28.1058C60.3895 28.5291 61.744 28.7407 63.5218 28.7407H70.5906V31.2804C69.3772 31.4497 68.1356 31.6049 66.8657 31.746C65.5959 31.9153 64.1285 32 62.4636 32ZM56.961 19.3862H64.1144C65.2432 19.3862 66.0756 19.1746 66.6118 18.7513C67.1479 18.328 67.416 17.552 67.416 16.4233C67.416 15.2945 67.2467 14.4056 66.9081 13.7566C66.5977 13.1076 66.0756 12.642 65.3419 12.3598C64.6082 12.0776 63.6347 11.9365 62.4213 11.9365C61.0386 11.9365 59.938 12.1481 59.1197 12.5714C58.3296 12.9947 57.7652 13.7425 57.4266 14.8148C57.1162 15.8871 56.961 17.4109 56.961 19.3862Z" fill="white"/>
<path d="M74.2748 31.746V9.10053H77.661L78.5076 11.5556C79.6081 10.7937 80.8215 10.1305 82.1478 9.56614C83.4741 9.00176 84.9979 8.71958 86.7192 8.71958C88.1302 8.71958 89.3295 9.02998 90.3171 9.65079C91.3048 10.2716 92.0526 11.0617 92.5605 12.0212C93.2378 11.5132 94.0561 11.0053 95.0155 10.4974C95.975 9.98942 97.005 9.56614 98.1055 9.22752C99.206 8.88889 100.264 8.71958 101.28 8.71958C102.973 8.71958 104.342 9.07231 105.386 9.77778C106.458 10.455 107.22 11.4004 107.672 12.6138C108.151 13.7989 108.391 15.1534 108.391 16.6772V31.746H104.158V17.0159C104.158 16.1129 103.975 15.3369 103.608 14.6878C103.27 14.0106 102.776 13.4885 102.127 13.1217C101.506 12.7549 100.744 12.5714 99.8409 12.5714C98.7122 12.5714 97.5552 12.7972 96.37 13.2487C95.1848 13.672 94.0984 14.194 93.1108 14.8148C93.2236 15.1817 93.3083 15.5626 93.3647 15.9577C93.4212 16.3245 93.4494 16.6914 93.4494 17.0582V31.746H89.2166V17.0159C89.2166 16.1129 89.0332 15.3369 88.6663 14.6878C88.3277 14.0106 87.848 13.4885 87.2272 13.1217C86.6064 12.7549 85.8445 12.5714 84.9415 12.5714C84.0949 12.5714 83.3048 12.6561 82.5711 12.8254C81.8656 12.9947 81.1884 13.2346 80.5393 13.545C79.8903 13.8272 79.2131 14.1799 78.5076 14.6032V31.746H74.2748Z" fill="white"/>
<path d="M115.602 5.46032C115.376 5.46032 115.193 5.38977 115.052 5.24868C114.911 5.10758 114.868 4.92416 114.925 4.69841L115.518 0.846563C115.63 0.282187 115.941 0 116.449 0H120.428C120.682 0 120.851 0.0846567 120.936 0.25397C121.048 0.423282 121.077 0.620812 121.02 0.846563L120.428 4.69841C120.343 5.20635 120.061 5.46032 119.581 5.46032H115.602ZM110.777 31.746L114.332 9.0582H119.581L116.025 31.746H110.777Z" fill="white"/>
<path d="M127.718 32C126.871 32 126.011 31.9718 125.136 31.9153C124.289 31.8871 123.457 31.8307 122.639 31.746C121.848 31.6896 121.101 31.6049 120.395 31.4921C119.718 31.3792 119.139 31.2522 118.66 31.1111L119.125 28.0212H128.861C129.82 28.0212 130.596 27.866 131.189 27.5556C131.81 27.2169 132.176 26.6667 132.289 25.9048L132.459 24.7196C132.487 24.5785 132.501 24.4797 132.501 24.4233C132.501 24.3386 132.501 24.2681 132.501 24.2116C132.501 23.1111 131.767 22.5608 130.3 22.5608H126.66C125.418 22.5608 124.318 22.4198 123.358 22.1376C122.427 21.8272 121.707 21.3616 121.199 20.7407C120.691 20.0917 120.437 19.2593 120.437 18.2434C120.437 17.9612 120.437 17.6649 120.437 17.3545C120.466 17.0159 120.508 16.6772 120.564 16.3386L120.861 14.6878C121.087 13.5309 121.496 12.515 122.088 11.6402C122.709 10.7654 123.626 10.0741 124.84 9.56614C126.081 9.0582 127.718 8.80423 129.75 8.80423C130.596 8.80423 131.556 8.84656 132.628 8.93122C133.7 9.01587 134.744 9.12875 135.76 9.26984C136.804 9.38272 137.665 9.53792 138.342 9.73545L137.834 12.8254H128.776C127.732 12.8254 126.97 13.0088 126.49 13.3757C126.011 13.7143 125.686 14.2646 125.517 15.0265L125.39 15.9153C125.333 16.1693 125.291 16.381 125.263 16.5503C125.263 16.6914 125.263 16.8325 125.263 16.9735C125.263 17.4533 125.432 17.806 125.771 18.0317C126.138 18.2293 126.773 18.328 127.676 18.328H131.654C133.376 18.328 134.758 18.7231 135.803 19.5132C136.875 20.2751 137.411 21.3616 137.411 22.7725C137.411 23.0265 137.397 23.2945 137.369 23.5767C137.369 23.8589 137.34 24.1411 137.284 24.4233L136.988 26.455C136.677 28.4868 135.704 29.9259 134.067 30.7725C132.43 31.5908 130.314 32 127.718 32Z" fill="white"/>
</svg>
