<svg preserveAspectRatio="none" width="100%" height="100%" overflow="visible" style="display: block;" viewBox="0 0 606.25 24" fill="none" xmlns="http://www.w3.org/2000/svg">
<g id="Background Graphics">
<path id="Vector 175" d="M0.5 2.5464e-05V24" stroke="var(--stroke-0, #1E8BFF)"/>
<path id="Vector 176" d="M30.7625 0V24" stroke="var(--stroke-0, #1E8BFF)"/>
<path id="Vector 192" d="M61.025 0V24" stroke="var(--stroke-0, #1E8BFF)"/>
<path id="Vector 193" opacity="0.2" d="M91.2875 0V24" stroke="var(--stroke-0, #1E8BFF)"/>
<path id="Vector 194" d="M121.55 0V24" stroke="var(--stroke-0, #1E8BFF)"/>
<path id="Vector 186" d="M151.813 0V24" stroke="var(--stroke-0, #1E8BFF)"/>
<path id="Vector 187" d="M182.075 0V24" stroke="var(--stroke-0, #1E8BFF)"/>
<path id="Vector 188" opacity="0.2" d="M212.338 0V24" stroke="var(--stroke-0, #1E8BFF)"/>
<path id="Vector 189" d="M242.6 0V24" stroke="var(--stroke-0, #1E8BFF)"/>
<path id="Vector 190" d="M272.863 0V24" stroke="var(--stroke-0, #1E8BFF)"/>
<path id="Vector 191" opacity="0.2" d="M303.125 0V24" stroke="var(--stroke-0, #1E8BFF)"/>
<path id="Vector 177" d="M333.388 0V24" stroke="var(--stroke-0, #1E8BFF)"/>
<path id="Vector 178" d="M363.65 0V24" stroke="var(--stroke-0, #1E8BFF)"/>
<path id="Vector 179" d="M393.912 0V24" stroke="var(--stroke-0, #1E8BFF)"/>
<path id="Vector 180" d="M424.175 0V24" stroke="var(--stroke-0, #1E8BFF)"/>
<path id="Vector 181" d="M454.437 0V24" stroke="var(--stroke-0, #1E8BFF)"/>
<path id="Vector 182" opacity="0.2" d="M484.7 0V24" stroke="var(--stroke-0, #1E8BFF)"/>
<path id="Vector 183" d="M514.962 0V24" stroke="var(--stroke-0, #1E8BFF)"/>
<path id="Vector 184" d="M545.225 0V24" stroke="var(--stroke-0, #1E8BFF)"/>
<path id="Vector 185" d="M575.487 0V24" stroke="var(--stroke-0, #1E8BFF)"/>
<path id="Vector 164" d="M605.75 0V24" stroke="var(--stroke-0, #1E8BFF)"/>
</g>
</svg>
