<svg preserveAspectRatio="none" width="100%" height="100%" overflow="visible" style="display: block;" viewBox="0 0 611.5 24" fill="none" xmlns="http://www.w3.org/2000/svg">
<g id="Background Graphics">
<path id="Vector 150" opacity="0.5" d="M0.5 0V24" stroke="var(--stroke-0, #1E8BFF)"/>
<path id="Vector 151" d="M31.025 0V24" stroke="var(--stroke-0, #1E8BFF)"/>
<path id="Vector 152" d="M61.55 0V24" stroke="var(--stroke-0, #1E8BFF)"/>
<path id="Vector 153" d="M92.075 0V24" stroke="var(--stroke-0, #1E8BFF)"/>
<path id="Vector 154" opacity="0.2" d="M122.6 0V24" stroke="var(--stroke-0, #1E8BFF)"/>
<path id="Vector 155" d="M153.125 0V24" stroke="var(--stroke-0, #1E8BFF)"/>
<path id="Vector 156" d="M183.65 0V24" stroke="var(--stroke-0, #1E8BFF)"/>
<path id="Vector 157" opacity="0.2" d="M214.175 0V24" stroke="var(--stroke-0, #1E8BFF)"/>
<path id="Vector 158" d="M244.7 0V24" stroke="var(--stroke-0, #1E8BFF)"/>
<path id="Vector 159" d="M275.225 0V24" stroke="var(--stroke-0, #1E8BFF)"/>
<path id="Vector 160" d="M305.75 0V24" stroke="var(--stroke-0, #1E8BFF)"/>
<path id="Vector 161" d="M336.275 0V24" stroke="var(--stroke-0, #1E8BFF)"/>
<path id="Vector 162" d="M366.8 0V24" stroke="var(--stroke-0, #1E8BFF)"/>
<path id="Vector 163" d="M397.325 0V24" stroke="var(--stroke-0, #1E8BFF)"/>
<path id="Vector 165" d="M427.85 0V24" stroke="var(--stroke-0, #1E8BFF)"/>
<path id="Vector 166" opacity="0.2" d="M458.375 0V24" stroke="var(--stroke-0, #1E8BFF)"/>
<path id="Vector 167" d="M488.9 0V24" stroke="var(--stroke-0, #1E8BFF)"/>
<path id="Vector 168" opacity="0.2" d="M519.425 0V24" stroke="var(--stroke-0, #1E8BFF)"/>
<path id="Vector 169" d="M549.95 0V24" stroke="var(--stroke-0, #1E8BFF)"/>
<path id="Vector 170" opacity="0.2" d="M580.475 0V24" stroke="var(--stroke-0, #1E8BFF)"/>
<path id="Vector 164" d="M611 0V24" stroke="var(--stroke-0, #1E8BFF)"/>
</g>
</svg>
