<svg preserveAspectRatio="none" width="100%" height="100%" overflow="visible" style="display: block;" viewBox="0 0 1039 24.0001" fill="none" xmlns="http://www.w3.org/2000/svg">
<g id="Background Graphics">
<path id="Vector 150" opacity="0.5" d="M0.5 0V24" stroke="var(--stroke-0, #1E8BFF)"/>
<path id="Vector 151" opacity="0.1" d="M31.0294 8.31917e-05V24.0001" stroke="var(--stroke-0, #1E8BFF)"/>
<path id="Vector 152" opacity="0.1" d="M61.5588 8.31917e-05V24.0001" stroke="var(--stroke-0, #1E8BFF)"/>
<path id="Vector 153" opacity="0.1" d="M92.0882 8.31917e-05V24.0001" stroke="var(--stroke-0, #1E8BFF)"/>
<path id="Vector 154" opacity="0.1" d="M122.618 8.31917e-05V24.0001" stroke="var(--stroke-0, #1E8BFF)"/>
<path id="Vector 155" opacity="0.1" d="M153.147 8.31917e-05V24.0001" stroke="var(--stroke-0, #1E8BFF)"/>
<path id="Vector 156" opacity="0.2" d="M183.676 8.31917e-05V24.0001" stroke="var(--stroke-0, #1E8BFF)"/>
<path id="Vector 157" opacity="0.1" d="M214.206 8.31917e-05V24.0001" stroke="var(--stroke-0, #1E8BFF)"/>
<path id="Vector 158" opacity="0.1" d="M244.735 8.31917e-05V24.0001" stroke="var(--stroke-0, #1E8BFF)"/>
<path id="Vector 159" opacity="0.1" d="M275.265 8.31917e-05V24.0001" stroke="var(--stroke-0, #1E8BFF)"/>
<path id="Vector 160" d="M305.794 8.31917e-05V24.0001" stroke="var(--stroke-0, #1E8BFF)"/>
<path id="Vector 161" d="M336.324 8.31917e-05V24.0001" stroke="var(--stroke-0, #1E8BFF)" stroke-width="2"/>
<path id="Vector 162" d="M366.853 8.31917e-05V24.0001" stroke="var(--stroke-0, #1E8BFF)"/>
<path id="Vector 163" d="M397.382 8.31917e-05V24.0001" stroke="var(--stroke-0, #1E8BFF)"/>
<path id="Vector 165" d="M427.912 8.31917e-05V24.0001" stroke="var(--stroke-0, #1E8BFF)"/>
<path id="Vector 167" d="M458.441 8.31917e-05V24.0001" stroke="var(--stroke-0, #1E8BFF)"/>
<path id="Vector 168" opacity="0.1" d="M488.971 8.31917e-05V24.0001" stroke="var(--stroke-0, #1E8BFF)"/>
<path id="Vector 169" d="M519.5 8.31917e-05V24.0001" stroke="var(--stroke-0, #1E8BFF)"/>
<path id="Vector 170" opacity="0.1" d="M550.029 8.31917e-05V24.0001" stroke="var(--stroke-0, #1E8BFF)"/>
<path id="Vector 171" d="M580.559 8.31917e-05V24.0001" stroke="var(--stroke-0, #1E8BFF)"/>
<path id="Vector 172" d="M611.088 8.31917e-05V24.0001" stroke="var(--stroke-0, #1E8BFF)"/>
<path id="Vector 173" d="M641.618 8.31917e-05V24.0001" stroke="var(--stroke-0, #1E8BFF)"/>
<path id="Vector 174" d="M672.147 8.31917e-05V24.0001" stroke="var(--stroke-0, #1E8BFF)"/>
<path id="Vector 175" d="M702.677 8.31917e-05V24.0001" stroke="var(--stroke-0, #1E8BFF)"/>
<path id="Vector 176" opacity="0.2" d="M733.206 8.31917e-05V24.0001" stroke="var(--stroke-0, #1E8BFF)"/>
<path id="Vector 177" d="M763.735 8.31917e-05V24.0001" stroke="var(--stroke-0, #1E8BFF)"/>
<path id="Vector 178" d="M794.265 8.31917e-05V24.0001" stroke="var(--stroke-0, #1E8BFF)"/>
<path id="Vector 179" opacity="0.2" d="M824.794 8.31917e-05V24.0001" stroke="var(--stroke-0, #1E8BFF)"/>
<path id="Vector 180" opacity="0.2" d="M855.324 8.31917e-05V24.0001" stroke="var(--stroke-0, #1E8BFF)"/>
<path id="Vector 181" d="M885.853 8.31917e-05V24.0001" stroke="var(--stroke-0, #1E8BFF)"/>
<path id="Vector 182" d="M916.382 8.31917e-05V24.0001" stroke="var(--stroke-0, #1E8BFF)"/>
<path id="Vector 183" d="M946.912 8.31917e-05V24.0001" stroke="var(--stroke-0, #1E8BFF)" stroke-width="2"/>
<path id="Vector 184" opacity="0.2" d="M977.441 8.31917e-05V24.0001" stroke="var(--stroke-0, #1E8BFF)"/>
<path id="Vector 185" d="M1007.97 8.31917e-05V24.0001" stroke="var(--stroke-0, #1E8BFF)"/>
<path id="Vector 164" d="M1038.5 8.31917e-05V24.0001" stroke="var(--stroke-0, #1E8BFF)"/>
</g>
</svg>
