<svg preserveAspectRatio="none" width="100%" height="100%" overflow="visible" style="display: block;" viewBox="0 0 703 24" fill="none" xmlns="http://www.w3.org/2000/svg">
<g id="Background Graphics">
<path id="Vector 150" opacity="0.5" d="M0.5 0V24" stroke="var(--stroke-0, #1E8BFF)"/>
<path id="Vector 151" opacity="0.1" d="M31.0217 0V24" stroke="var(--stroke-0, #1E8BFF)"/>
<path id="Vector 152" opacity="0.1" d="M61.5435 0V24" stroke="var(--stroke-0, #1E8BFF)"/>
<path id="Vector 153" opacity="0.1" d="M92.0652 0V24" stroke="var(--stroke-0, #1E8BFF)"/>
<path id="Vector 154" opacity="0.1" d="M122.587 0V24" stroke="var(--stroke-0, #1E8BFF)"/>
<path id="Vector 155" opacity="0.1" d="M153.109 0V24" stroke="var(--stroke-0, #1E8BFF)"/>
<path id="Vector 156" opacity="0.1" d="M183.63 0V24" stroke="var(--stroke-0, #1E8BFF)"/>
<path id="Vector 157" opacity="0.1" d="M214.152 0V24" stroke="var(--stroke-0, #1E8BFF)"/>
<path id="Vector 158" opacity="0.1" d="M244.674 0V24" stroke="var(--stroke-0, #1E8BFF)"/>
<path id="Vector 159" d="M275.196 0V24" stroke="var(--stroke-0, #1E8BFF)"/>
<path id="Vector 160" opacity="0.1" d="M305.717 0V24" stroke="var(--stroke-0, #1E8BFF)"/>
<path id="Vector 161" opacity="0.1" d="M336.239 0V24" stroke="var(--stroke-0, #1E8BFF)"/>
<path id="Vector 162" opacity="0.1" d="M366.761 0V24" stroke="var(--stroke-0, #1E8BFF)"/>
<path id="Vector 163" d="M397.283 0V24" stroke="var(--stroke-0, #1E8BFF)"/>
<path id="Vector 165" d="M427.804 0V24" stroke="var(--stroke-0, #1E8BFF)"/>
<path id="Vector 166" d="M458.326 0V24" stroke="var(--stroke-0, #1E8BFF)"/>
<path id="Vector 167" opacity="0.1" d="M488.848 0V24" stroke="var(--stroke-0, #1E8BFF)"/>
<path id="Vector 168" opacity="0.1" d="M519.37 0V24" stroke="var(--stroke-0, #1E8BFF)"/>
<path id="Vector 169" opacity="0.1" d="M549.891 0V24" stroke="var(--stroke-0, #1E8BFF)"/>
<path id="Vector 170" d="M580.413 0V24" stroke="var(--stroke-0, #1E8BFF)"/>
<path id="Vector 171" d="M610.935 0V24" stroke="var(--stroke-0, #1E8BFF)"/>
<path id="Vector 172" d="M641.456 0V24" stroke="var(--stroke-0, #1E8BFF)"/>
<path id="Vector 173" d="M671.978 0V24" stroke="var(--stroke-0, #1E8BFF)"/>
<path id="Vector 164" d="M702.5 0V24" stroke="var(--stroke-0, #1E8BFF)"/>
</g>
</svg>
