<svg preserveAspectRatio="none" width="100%" height="100%" overflow="visible" style="display: block;" viewBox="0 0 606.25 24" fill="none" xmlns="http://www.w3.org/2000/svg">
<g id="Background Graphics">
<path id="Vector 175" opacity="0.2" d="M0.5 0V24" stroke="var(--stroke-0, #1E8BFF)"/>
<path id="Vector 176" d="M30.7625 0V24" stroke="var(--stroke-0, #1E8BFF)"/>
<path id="Vector 192" d="M61.025 0V24" stroke="var(--stroke-0, #1E8BFF)"/>
<path id="Vector 193" d="M91.2875 0V24" stroke="var(--stroke-0, #1E8BFF)"/>
<path id="Vector 194" d="M121.55 0V24" stroke="var(--stroke-0, #1E8BFF)"/>
<path id="Vector 186" d="M151.812 0V24" stroke="var(--stroke-0, #1E8BFF)"/>
<path id="Vector 187" d="M182.075 0V24" stroke="var(--stroke-0, #1E8BFF)"/>
<path id="Vector 188" d="M212.337 0V24" stroke="var(--stroke-0, #1E8BFF)"/>
<path id="Vector 189" d="M242.6 0V24" stroke="var(--stroke-0, #1E8BFF)"/>
<path id="Vector 190" d="M272.862 0V24" stroke="var(--stroke-0, #1E8BFF)"/>
<path id="Vector 191" d="M303.125 0V24" stroke="var(--stroke-0, #1E8BFF)"/>
<path id="Vector 177" opacity="0.1" d="M333.388 0V24" stroke="var(--stroke-0, #1E8BFF)"/>
<path id="Vector 178" opacity="0.1" d="M363.65 0V24" stroke="var(--stroke-0, #1E8BFF)"/>
<path id="Vector 179" opacity="0.1" d="M393.913 0V24" stroke="var(--stroke-0, #1E8BFF)"/>
<path id="Vector 180" opacity="0.1" d="M424.175 0V24" stroke="var(--stroke-0, #1E8BFF)"/>
<path id="Vector 181" opacity="0.1" d="M454.438 0V24" stroke="var(--stroke-0, #1E8BFF)"/>
<path id="Vector 182" opacity="0.1" d="M484.7 0V24" stroke="var(--stroke-0, #1E8BFF)"/>
<path id="Vector 183" opacity="0.1" d="M514.963 0V24" stroke="var(--stroke-0, #1E8BFF)"/>
<path id="Vector 184" opacity="0.1" d="M545.225 0V24" stroke="var(--stroke-0, #1E8BFF)"/>
<path id="Vector 185" opacity="0.1" d="M575.488 0V24" stroke="var(--stroke-0, #1E8BFF)"/>
<path id="Vector 164" opacity="0.1" d="M605.75 0V24" stroke="var(--stroke-0, #1E8BFF)"/>
</g>
</svg>
